# xmcd
#
# Track frame offsets: 
#        150
#        13626
#        34127
#        54727
#        76820
#        97864
#        119207
#        139646
#        158229
#        179552
#        197332
#        216574
#
# Disc length: 3092 seconds
#
# Revision: 2
# Processed by: cddbd v1.5.2PL0 Copyright (c) Steve Scherf et al.
# Submitted via: ExactAudioCopyFreeDBPlugin 1.0
#
DISCID=a50c120c
DTITLE=Grant Lyle - So There
DYEAR=2011
DGENRE=Blues
TTITLE0=Impressions
TTITLE1=Let It Out
TTITLE2=I Will Wait
TTITLE3=You're Killing Me
TTITLE4=Trouble Blues
TTITLE5=Walk On
TTITLE6=Chéri Ann(Long Way To Go)
TTITLE7=From The Hills
TTITLE8=You've Got Love
TTITLE9=Librium
TTITLE10=Lost In Temptation
TTITLE11=Levee Moan
EXTD=
EXTT0=
EXTT1=
EXTT2=
EXTT3=
EXTT4=
EXTT5=
EXTT6=
EXTT7=
EXTT8=
EXTT9=
EXTT10=
EXTT11=
PLAYORDER=
